# xmcd
#
# Track frame offsets:
#	150
#	9366
#	26172
#	44707
#	58984
#	72604
#	84020
#	99102
#	109410
#	128756
#	142754
#	156760
#	176367
#	189487
#	203604
#
# Disc length: 2879 seconds
#
# Revision: 1
# Processed by: cddbd v1.5.2PL0 Copyright (c) Steve Scherf et al.
# Submitted via: audiograbber 1.83.01
#
DISCID=c40b3d0f
DTITLE=Chasin' Steel - Fresh Runs and Tight Lines
DYEAR=2009
DGENRE=Bluegrass
TTITLE0=Lonesome and Blue
TTITLE1=Drink My Dinner
TTITLE2=Copperhead Road
TTITLE3=Light of Love
TTITLE4=Standing On the Rock
TTITLE5=Redwing
TTITLE6=Bluegrass State of Mind
TTITLE7=Pete..Coondog..Tennessee
TTITLE8=Long Black Veil
TTITLE9=Spring Runoff
TTITLE10=Dixieland Delight
TTITLE11=Goodnight Babydolls
TTITLE12=Chasin' Steel
TTITLE13=Eastbound and Down
TTITLE14=Bonus track
EXTD=
EXTT0=
EXTT1=
EXTT2=
EXTT3=
EXTT4=
EXTT5=
EXTT6=
EXTT7=
EXTT8=
EXTT9=
EXTT10=
EXTT11=
EXTT12=
EXTT13=
EXTT14=
PLAYORDER=
